<mxfile host="Electron" modified="2024-07-19T05:00:00.105Z" agent="Mozilla/5.0 (Windows NT 10.0; Win64; x64) AppleWebKit/537.36 (KHTML, like Gecko) draw.io/24.6.4 Chrome/124.0.6367.207 Electron/30.0.6 Safari/537.36" etag="y_m7bgvgIvNhCwfV470x" version="24.6.4" type="device">
  <diagram name="PÃ¡gina-1" id="jQoiph2c1nl-3ZJ2nl2n">
    <mxGraphModel dx="733" dy="443" grid="1" gridSize="10" guides="1" tooltips="1" connect="1" arrows="1" fold="1" page="1" pageScale="1" pageWidth="827" pageHeight="1169" math="0" shadow="0">
      <root>
        <mxCell id="0" />
        <mxCell id="1" parent="0" />
        <mxCell id="oW7-d2dACLORPWj2OB6U-1" value="" style="endArrow=none;html=1;rounded=0;strokeWidth=3;" edge="1" parent="1">
          <mxGeometry width="50" height="50" relative="1" as="geometry">
            <mxPoint x="360" y="500" as="sourcePoint" />
            <mxPoint x="360" y="200" as="targetPoint" />
          </mxGeometry>
        </mxCell>
        <mxCell id="oW7-d2dACLORPWj2OB6U-2" value="" style="rounded=0;whiteSpace=wrap;html=1;fillColor=#fff2cc;strokeColor=#000000;" vertex="1" parent="1">
          <mxGeometry x="537" y="418" width="30" height="40" as="geometry" />
        </mxCell>
        <mxCell id="oW7-d2dACLORPWj2OB6U-8" value="" style="endArrow=classic;html=1;rounded=0;exitX=1;exitY=0.5;exitDx=0;exitDy=0;" edge="1" parent="1" source="oW7-d2dACLORPWj2OB6U-6">
          <mxGeometry width="50" height="50" relative="1" as="geometry">
            <mxPoint x="587" y="558" as="sourcePoint" />
            <mxPoint x="537" y="438" as="targetPoint" />
          </mxGeometry>
        </mxCell>
        <mxCell id="oW7-d2dACLORPWj2OB6U-11" value="" style="endArrow=none;html=1;rounded=0;exitX=0;exitY=0;exitDx=0;exitDy=0;entryX=1;entryY=1;entryDx=0;entryDy=0;" edge="1" parent="1" source="oW7-d2dACLORPWj2OB6U-2" target="oW7-d2dACLORPWj2OB6U-2">
          <mxGeometry width="50" height="50" relative="1" as="geometry">
            <mxPoint x="540" y="540" as="sourcePoint" />
            <mxPoint x="570" y="460" as="targetPoint" />
          </mxGeometry>
        </mxCell>
        <mxCell id="oW7-d2dACLORPWj2OB6U-12" value="" style="group" vertex="1" connectable="0" parent="1">
          <mxGeometry x="405" y="418" width="97" height="40" as="geometry" />
        </mxCell>
        <mxCell id="oW7-d2dACLORPWj2OB6U-5" value="&lt;font style=&quot;font-size: 14px;&quot; face=&quot;Courier New&quot;&gt;&lt;b&gt;Bart&lt;/b&gt;&lt;/font&gt;" style="rounded=0;whiteSpace=wrap;html=1;fillColor=#d5e8d4;strokeColor=#000000;" vertex="1" parent="oW7-d2dACLORPWj2OB6U-12">
          <mxGeometry width="70" height="40" as="geometry" />
        </mxCell>
        <mxCell id="oW7-d2dACLORPWj2OB6U-6" value="" style="rounded=0;whiteSpace=wrap;html=1;fillColor=#fff2cc;strokeColor=#000000;" vertex="1" parent="oW7-d2dACLORPWj2OB6U-12">
          <mxGeometry x="70" width="27" height="40" as="geometry" />
        </mxCell>
        <mxCell id="oW7-d2dACLORPWj2OB6U-14" value="" style="endArrow=classic;html=1;rounded=0;exitX=1;exitY=0.5;exitDx=0;exitDy=0;entryX=0.5;entryY=0;entryDx=0;entryDy=0;" edge="1" parent="1" source="oW7-d2dACLORPWj2OB6U-18" target="oW7-d2dACLORPWj2OB6U-5">
          <mxGeometry width="50" height="50" relative="1" as="geometry">
            <mxPoint x="587" y="481" as="sourcePoint" />
            <mxPoint x="537" y="361" as="targetPoint" />
            <Array as="points">
              <mxPoint x="520" y="360" />
              <mxPoint x="520" y="400" />
              <mxPoint x="440" y="400" />
            </Array>
          </mxGeometry>
        </mxCell>
        <mxCell id="oW7-d2dACLORPWj2OB6U-16" value="" style="group" vertex="1" connectable="0" parent="1">
          <mxGeometry x="405" y="340" width="97" height="40" as="geometry" />
        </mxCell>
        <mxCell id="oW7-d2dACLORPWj2OB6U-17" value="&lt;font style=&quot;font-size: 14px;&quot; face=&quot;Courier New&quot;&gt;&lt;b&gt;Lisa&lt;/b&gt;&lt;/font&gt;" style="rounded=0;whiteSpace=wrap;html=1;fillColor=#d5e8d4;strokeColor=#000000;" vertex="1" parent="oW7-d2dACLORPWj2OB6U-16">
          <mxGeometry width="70" height="40" as="geometry" />
        </mxCell>
        <mxCell id="oW7-d2dACLORPWj2OB6U-18" value="" style="rounded=0;whiteSpace=wrap;html=1;fillColor=#fff2cc;strokeColor=#000000;" vertex="1" parent="oW7-d2dACLORPWj2OB6U-16">
          <mxGeometry x="70" width="27" height="40" as="geometry" />
        </mxCell>
        <mxCell id="oW7-d2dACLORPWj2OB6U-20" value="" style="endArrow=classic;html=1;rounded=0;exitX=1;exitY=0.5;exitDx=0;exitDy=0;entryX=0.5;entryY=0;entryDx=0;entryDy=0;" edge="1" parent="1" source="oW7-d2dACLORPWj2OB6U-23">
          <mxGeometry width="50" height="50" relative="1" as="geometry">
            <mxPoint x="587" y="402" as="sourcePoint" />
            <mxPoint x="440" y="339" as="targetPoint" />
            <Array as="points">
              <mxPoint x="520" y="281" />
              <mxPoint x="520" y="321" />
              <mxPoint x="440" y="321" />
            </Array>
          </mxGeometry>
        </mxCell>
        <mxCell id="oW7-d2dACLORPWj2OB6U-21" value="" style="group" vertex="1" connectable="0" parent="1">
          <mxGeometry x="405" y="261" width="97" height="40" as="geometry" />
        </mxCell>
        <mxCell id="oW7-d2dACLORPWj2OB6U-22" value="&lt;font style=&quot;font-size: 14px;&quot; face=&quot;Courier New&quot;&gt;&lt;b&gt;Maggie&lt;/b&gt;&lt;/font&gt;" style="rounded=0;whiteSpace=wrap;html=1;fillColor=#d5e8d4;strokeColor=#000000;" vertex="1" parent="oW7-d2dACLORPWj2OB6U-21">
          <mxGeometry width="70" height="40" as="geometry" />
        </mxCell>
        <mxCell id="oW7-d2dACLORPWj2OB6U-23" value="" style="rounded=0;whiteSpace=wrap;html=1;fillColor=#fff2cc;strokeColor=#000000;" vertex="1" parent="oW7-d2dACLORPWj2OB6U-21">
          <mxGeometry x="70" width="27" height="40" as="geometry" />
        </mxCell>
        <mxCell id="oW7-d2dACLORPWj2OB6U-24" value="" style="endArrow=none;html=1;rounded=0;strokeWidth=3;" edge="1" parent="1">
          <mxGeometry width="50" height="50" relative="1" as="geometry">
            <mxPoint x="600" y="500" as="sourcePoint" />
            <mxPoint x="600" y="200" as="targetPoint" />
          </mxGeometry>
        </mxCell>
        <mxCell id="oW7-d2dACLORPWj2OB6U-25" value="" style="endArrow=none;html=1;rounded=0;strokeWidth=3;" edge="1" parent="1">
          <mxGeometry width="50" height="50" relative="1" as="geometry">
            <mxPoint x="361" y="498" as="sourcePoint" />
            <mxPoint x="601" y="498" as="targetPoint" />
          </mxGeometry>
        </mxCell>
        <mxCell id="oW7-d2dACLORPWj2OB6U-27" value="" style="rounded=0;whiteSpace=wrap;html=1;fillColor=#eeeeee;strokeColor=#36393D;strokeWidth=2;" vertex="1" parent="1">
          <mxGeometry x="160" y="200" width="100" height="80" as="geometry" />
        </mxCell>
        <mxCell id="oW7-d2dACLORPWj2OB6U-28" value="&lt;font style=&quot;font-size: 14px;&quot; face=&quot;Courier New&quot;&gt;&lt;b&gt;top&lt;/b&gt;&lt;/font&gt;" style="rounded=0;whiteSpace=wrap;html=1;fillColor=#fad9d5;strokeColor=#ae4132;" vertex="1" parent="1">
          <mxGeometry x="184" y="220" width="50" height="40" as="geometry" />
        </mxCell>
        <mxCell id="oW7-d2dACLORPWj2OB6U-29" value="" style="endArrow=classic;html=1;rounded=0;exitX=1;exitY=0.5;exitDx=0;exitDy=0;strokeColor=#AE4132;entryX=0.5;entryY=0;entryDx=0;entryDy=0;" edge="1" parent="1" source="oW7-d2dACLORPWj2OB6U-28" target="oW7-d2dACLORPWj2OB6U-22">
          <mxGeometry width="50" height="50" relative="1" as="geometry">
            <mxPoint x="380" y="360" as="sourcePoint" />
            <mxPoint x="290" y="240" as="targetPoint" />
            <Array as="points">
              <mxPoint x="290" y="240" />
              <mxPoint x="290" y="160" />
              <mxPoint x="440" y="160" />
            </Array>
          </mxGeometry>
        </mxCell>
        <mxCell id="oW7-d2dACLORPWj2OB6U-30" value="&lt;font style=&quot;font-size: 16px;&quot; face=&quot;Courier New&quot;&gt;&lt;b&gt;stack&lt;/b&gt;&lt;/font&gt;" style="text;html=1;align=center;verticalAlign=middle;whiteSpace=wrap;rounded=0;" vertex="1" parent="1">
          <mxGeometry x="180" y="280" width="60" height="30" as="geometry" />
        </mxCell>
        <mxCell id="oW7-d2dACLORPWj2OB6U-31" value="&lt;font style=&quot;font-size: 16px;&quot; face=&quot;Courier New&quot;&gt;&lt;b&gt;stack &lt;/b&gt;con elementos&lt;/font&gt;" style="text;html=1;align=center;verticalAlign=middle;whiteSpace=wrap;rounded=0;" vertex="1" parent="1">
          <mxGeometry x="370" y="500" width="210" height="30" as="geometry" />
        </mxCell>
      </root>
    </mxGraphModel>
  </diagram>
</mxfile>
